<svg width="165" height="160" viewBox="0 0 165 160" fill="none" xmlns="http://www.w3.org/2000/svg">
<g filter="url(#filter0_d_33_135)">
<path d="M29 88.5C29 50.1162 60.1162 19 98.5 19H165V117C165 119.209 163.209 121 161 121H33C30.7909 121 29 119.209 29 117V88.5Z" fill="#003ADB"/>
</g>
<g clip-path="url(#clip0_33_135)">
<path d="M86 61.286V86.934L96.13 82.594L108.13 88.594L118 84.36V58.714L120.606 57.598C120.758 57.5328 120.924 57.5064 121.089 57.5211C121.254 57.5359 121.413 57.5913 121.551 57.6825C121.689 57.7737 121.802 57.8978 121.881 58.0436C121.959 58.1894 122 58.3525 122 58.518V87L108 93L96 87L83.394 92.402C83.2418 92.4673 83.0758 92.4937 82.9109 92.4789C82.746 92.4642 82.5874 92.4087 82.4492 92.3175C82.311 92.2263 82.1976 92.1023 82.1192 91.9564C82.0408 91.8106 81.9999 91.6476 82 91.482V63L86 61.286ZM110.486 71.486L102 79.97L93.514 71.486C91.836 69.8077 90.6933 67.6695 90.2304 65.3418C89.7676 63.0141 90.0053 60.6014 90.9136 58.4088C91.822 56.2162 93.36 54.3422 95.3334 53.0237C97.3067 51.7052 99.6267 51.0015 102 51.0015C104.373 51.0015 106.693 51.7052 108.667 53.0237C110.64 54.3422 112.178 56.2162 113.086 58.4088C113.995 60.6014 114.232 63.0141 113.77 65.3418C113.307 67.6695 112.164 69.8077 110.486 71.486ZM102 74.314L107.656 68.656C108.775 67.5373 109.537 66.1118 109.846 64.5599C110.155 63.008 109.997 61.3994 109.391 59.9374C108.786 58.4755 107.76 57.2259 106.445 56.3467C105.129 55.4676 103.582 54.9983 102 54.9983C100.418 54.9983 98.8708 55.4676 97.5552 56.3467C96.2395 57.2259 95.2142 58.4755 94.6087 59.9374C94.0033 61.3994 93.845 63.008 94.1539 64.5599C94.4628 66.1118 95.2249 67.5373 96.344 68.656L102 74.314Z" fill="white"/>
</g>
<defs>
<filter id="filter0_d_33_135" x="0" y="0" width="194" height="160" filterUnits="userSpaceOnUse" color-interpolation-filters="sRGB">
<feFlood flood-opacity="0" result="BackgroundImageFix"/>
<feColorMatrix in="SourceAlpha" type="matrix" values="0 0 0 0 0 0 0 0 0 0 0 0 0 0 0 0 0 0 127 0" result="hardAlpha"/>
<feOffset dy="10"/>
<feGaussianBlur stdDeviation="14.5"/>
<feColorMatrix type="matrix" values="0 0 0 0 0.25098 0 0 0 0 0.505647 0 0 0 0 1 0 0 0 0.24 0"/>
<feBlend mode="normal" in2="BackgroundImageFix" result="effect1_dropShadow_33_135"/>
<feBlend mode="normal" in="SourceGraphic" in2="effect1_dropShadow_33_135" result="shape"/>
</filter>
<clipPath id="clip0_33_135">
<rect width="48" height="48" fill="white" transform="translate(78 49)"/>
</clipPath>
</defs>
</svg>
