<svg width="234" height="38" viewBox="0 0 234 38" fill="none" xmlns="http://www.w3.org/2000/svg">
<path d="M9.376 7.92C12.0213 7.92 14.0373 8.89067 15.424 10.832C16.832 12.7733 17.536 15.568 17.536 19.216C17.536 22.8427 16.832 25.6373 15.424 27.6C14.0373 29.5627 12.0213 30.544 9.376 30.544C6.73067 30.544 4.704 29.5627 3.296 27.6C1.90933 25.6373 1.216 22.8427 1.216 19.216C1.216 15.568 1.90933 12.7733 3.296 10.832C4.704 8.89067 6.73067 7.92 9.376 7.92ZM9.376 11.664C8.65067 11.664 8.07467 11.8987 7.648 12.368C7.22133 12.8373 6.90133 13.616 6.688 14.704C6.496 15.792 6.4 17.296 6.4 19.216C6.4 21.136 6.496 22.6507 6.688 23.76C6.90133 24.848 7.22133 25.6267 7.648 26.096C8.07467 26.5653 8.65067 26.8 9.376 26.8C10.1013 26.8 10.6773 26.576 11.104 26.128C11.5307 25.6587 11.84 24.88 12.032 23.792C12.2453 22.6827 12.352 21.1573 12.352 19.216C12.352 17.2747 12.2453 15.76 12.032 14.672C11.84 13.5627 11.5307 12.784 11.104 12.336C10.6773 11.888 10.1013 11.664 9.376 11.664ZM30.224 8.368V30H25.264V13.296L20.624 16.144L18.416 12.784L25.712 8.368H30.224Z" fill="white"/>
<path d="M207.376 7.92C210.021 7.92 212.037 8.89067 213.424 10.832C214.832 12.7733 215.536 15.568 215.536 19.216C215.536 22.8427 214.832 25.6373 213.424 27.6C212.037 29.5627 210.021 30.544 207.376 30.544C204.731 30.544 202.704 29.5627 201.296 27.6C199.909 25.6373 199.216 22.8427 199.216 19.216C199.216 15.568 199.909 12.7733 201.296 10.832C202.704 8.89067 204.731 7.92 207.376 7.92ZM207.376 11.664C206.651 11.664 206.075 11.8987 205.648 12.368C205.221 12.8373 204.901 13.616 204.688 14.704C204.496 15.792 204.4 17.296 204.4 19.216C204.4 21.136 204.496 22.6507 204.688 23.76C204.901 24.848 205.221 25.6267 205.648 26.096C206.075 26.5653 206.651 26.8 207.376 26.8C208.101 26.8 208.677 26.576 209.104 26.128C209.531 25.6587 209.84 24.88 210.032 23.792C210.245 22.6827 210.352 21.1573 210.352 19.216C210.352 17.2747 210.245 15.76 210.032 14.672C209.84 13.5627 209.531 12.784 209.104 12.336C208.677 11.888 208.101 11.664 207.376 11.664ZM224.054 7.92C225.569 7.92 226.86 8.16533 227.926 8.656C229.014 9.14666 229.836 9.808 230.39 10.64C230.966 11.472 231.254 12.4 231.254 13.424C231.254 14.7253 230.881 15.8133 230.134 16.688C229.409 17.5627 228.374 18.192 227.03 18.576C228.481 18.7253 229.665 19.248 230.582 20.144C231.5 21.0187 231.958 22.2667 231.958 23.888C231.958 25.104 231.638 26.224 230.998 27.248C230.358 28.2507 229.409 29.0507 228.15 29.648C226.913 30.2453 225.43 30.544 223.702 30.544C220.545 30.544 218.07 29.456 216.278 27.28L218.998 24.624C219.724 25.3493 220.428 25.8827 221.11 26.224C221.814 26.544 222.582 26.704 223.414 26.704C224.417 26.704 225.228 26.4267 225.846 25.872C226.465 25.3173 226.774 24.5493 226.774 23.568C226.774 22.4587 226.476 21.6693 225.878 21.2C225.302 20.7093 224.428 20.464 223.254 20.464H221.462L222.006 16.976H223.254C224.214 16.976 224.972 16.7307 225.526 16.24C226.081 15.7493 226.358 15.056 226.358 14.16C226.358 13.3707 226.102 12.7627 225.59 12.336C225.078 11.888 224.374 11.664 223.478 11.664C221.964 11.664 220.556 12.2933 219.254 13.552L216.758 10.832C218.806 8.89067 221.238 7.92 224.054 7.92Z" fill="white"/>
<rect x="47" y="17" width="137" height="2" fill="white"/>
<g filter="url(#filter0_d_11_947)">
<rect x="47" y="17" width="83" height="2" fill="#003ADB"/>
</g>
<defs>
<filter id="filter0_d_11_947" x="33" y="5" width="111" height="30" filterUnits="userSpaceOnUse" color-interpolation-filters="sRGB">
<feFlood flood-opacity="0" result="BackgroundImageFix"/>
<feColorMatrix in="SourceAlpha" type="matrix" values="0 0 0 0 0 0 0 0 0 0 0 0 0 0 0 0 0 0 127 0" result="hardAlpha"/>
<feOffset dy="2"/>
<feGaussianBlur stdDeviation="7"/>
<feColorMatrix type="matrix" values="0 0 0 0 0.25098 0 0 0 0 0.550588 0 0 0 0 1 0 0 0 0.24 0"/>
<feBlend mode="normal" in2="BackgroundImageFix" result="effect1_dropShadow_11_947"/>
<feBlend mode="normal" in="SourceGraphic" in2="effect1_dropShadow_11_947" result="shape"/>
</filter>
</defs>
</svg>
