<svg width="379" height="385" viewBox="0 0 379 385" fill="none" xmlns="http://www.w3.org/2000/svg">
<rect y="1" width="350" height="345" rx="4" fill="#1B2837"/>
<path d="M0 4C0 1.79086 1.79086 0 4 0H346C348.209 0 350 1.79086 350 4V50H0V4Z" fill="#1B2837"/>
<g filter="url(#filter0_d_1553_10)">
<path d="M214 313.5C214 275.116 245.116 244 283.5 244H350V342C350 344.209 348.209 346 346 346H218C215.791 346 214 344.209 214 342V313.5Z" fill="#003ADB"/>
</g>
<g clip-path="url(#clip0_1553_10)">
<path d="M274 281V287H302V281H274ZM272 277H304C304.53 277 305.039 277.211 305.414 277.586C305.789 277.961 306 278.47 306 279V289C306 289.53 305.789 290.039 305.414 290.414C305.039 290.789 304.53 291 304 291H272C271.47 291 270.961 290.789 270.586 290.414C270.211 290.039 270 289.53 270 289V279C270 278.47 270.211 277.961 270.586 277.586C270.961 277.211 271.47 277 272 277ZM276 295H288C288.53 295 289.039 295.211 289.414 295.586C289.789 295.961 290 296.47 290 297V303H292V315H284V303H286V299H274C273.47 299 272.961 298.789 272.586 298.414C272.211 298.039 272 297.53 272 297V293H276V295ZM299.464 298.464L303 294.928L306.536 298.464C307.235 299.163 307.711 300.054 307.904 301.024C308.097 301.994 307.998 302.999 307.619 303.913C307.241 304.826 306.6 305.607 305.778 306.157C304.955 306.706 303.989 306.999 303 306.999C302.011 306.999 301.045 306.706 300.222 306.157C299.4 305.607 298.759 304.826 298.381 303.913C298.002 302.999 297.903 301.994 298.096 301.024C298.289 300.054 298.765 299.163 299.464 298.464Z" fill="white"/>
</g>
<defs>
<filter id="filter0_d_1553_10" x="185" y="225" width="194" height="160" filterUnits="userSpaceOnUse" color-interpolation-filters="sRGB">
<feFlood flood-opacity="0" result="BackgroundImageFix"/>
<feColorMatrix in="SourceAlpha" type="matrix" values="0 0 0 0 0 0 0 0 0 0 0 0 0 0 0 0 0 0 127 0" result="hardAlpha"/>
<feOffset dy="10"/>
<feGaussianBlur stdDeviation="14.5"/>
<feColorMatrix type="matrix" values="0 0 0 0 0.25098 0 0 0 0 0.505647 0 0 0 0 1 0 0 0 0.24 0"/>
<feBlend mode="normal" in2="BackgroundImageFix" result="effect1_dropShadow_1553_10"/>
<feBlend mode="normal" in="SourceGraphic" in2="effect1_dropShadow_1553_10" result="shape"/>
</filter>
<clipPath id="clip0_1553_10">
<rect width="48" height="48" fill="white" transform="translate(264 271)"/>
</clipPath>
</defs>
</svg>
