<svg width="36" height="385" viewBox="0 0 36 385" fill="none" xmlns="http://www.w3.org/2000/svg">
<path d="M12.376 7.92C7.064 7.92 4.216 11.952 4.216 19.216C4.216 26.448 7.064 30.544 12.376 30.544C17.688 30.544 20.536 26.448 20.536 19.216C20.536 11.952 17.688 7.92 12.376 7.92ZM12.376 11.664C14.456 11.664 15.352 13.328 15.352 19.216C15.352 25.072 14.456 26.8 12.376 26.8C10.264 26.8 9.4 24.944 9.4 19.216C9.4 13.488 10.264 11.664 12.376 11.664ZM33.224 8.368H28.712L21.416 12.784L23.624 16.144L28.264 13.296V30H33.224V8.368Z" fill="white"/>
<path d="M9.376 354.92C4.064 354.92 1.216 358.952 1.216 366.216C1.216 373.448 4.064 377.544 9.376 377.544C14.688 377.544 17.536 373.448 17.536 366.216C17.536 358.952 14.688 354.92 9.376 354.92ZM9.376 358.664C11.456 358.664 12.352 360.328 12.352 366.216C12.352 372.072 11.456 373.8 9.376 373.8C7.264 373.8 6.4 371.944 6.4 366.216C6.4 360.488 7.264 358.664 9.376 358.664ZM26.0543 354.92C23.1743 354.92 20.7743 355.912 18.7583 357.832L21.2543 360.552C22.5343 359.304 23.8783 358.664 25.4783 358.664C27.2383 358.664 28.3583 359.592 28.3583 361.16C28.3583 362.952 27.1743 363.976 25.2543 363.976H24.0063L23.4623 367.464H25.2543C27.5263 367.464 28.7743 368.296 28.7743 370.568C28.7743 372.552 27.3983 373.704 25.4143 373.704C23.7183 373.704 22.4383 373.064 20.9983 371.624L18.2782 374.28C19.9743 376.328 22.4383 377.544 25.7023 377.544C31.0463 377.544 33.9583 374.504 33.9583 370.888C33.9583 367.464 31.7183 365.864 29.0303 365.576C31.6863 364.808 33.2543 363.048 33.2543 360.424C33.2543 357.384 30.7263 354.92 26.0543 354.92Z" fill="white"/>
<rect x="20" y="243" width="88" height="2" transform="rotate(90 20 243)" fill="white"/>
<rect x="20" y="151" width="88" height="2" transform="rotate(90 20 151)" fill="white"/>
<g filter="url(#filter0_d_33_16)">
<rect x="20" y="64" width="83" height="2" transform="rotate(90 20 64)" fill="#003ADB"/>
</g>
<defs>
<filter id="filter0_d_33_16" x="4" y="52" width="30" height="111" filterUnits="userSpaceOnUse" color-interpolation-filters="sRGB">
<feFlood flood-opacity="0" result="BackgroundImageFix"/>
<feColorMatrix in="SourceAlpha" type="matrix" values="0 0 0 0 0 0 0 0 0 0 0 0 0 0 0 0 0 0 127 0" result="hardAlpha"/>
<feOffset dy="2"/>
<feGaussianBlur stdDeviation="7"/>
<feColorMatrix type="matrix" values="0 0 0 0 0.25098 0 0 0 0 0.550588 0 0 0 0 1 0 0 0 0.24 0"/>
<feBlend mode="normal" in2="BackgroundImageFix" result="effect1_dropShadow_33_16"/>
<feBlend mode="normal" in="SourceGraphic" in2="effect1_dropShadow_33_16" result="shape"/>
</filter>
</defs>
</svg>
