<svg width="379" height="385" viewBox="0 0 379 385" fill="none" xmlns="http://www.w3.org/2000/svg">
<rect y="1" width="350" height="345" rx="4" fill="#1B2837"/>
<path d="M0 4C0 1.79086 1.79086 0 4 0H346C348.209 0 350 1.79086 350 4V50H0V4Z" fill="#1B2837"/>
<g filter="url(#filter0_d_1553_6)">
<path d="M214 313.5C214 275.116 245.116 244 283.5 244H350V342C350 344.209 348.209 346 346 346H218C215.791 346 214 344.209 214 342V313.5Z" fill="#003ADB"/>
</g>
<g clip-path="url(#clip0_1553_6)">
<path d="M268 303H300V281H268V303ZM286 307V311H294V315H274V311H282V307H265.984C265.721 306.998 265.462 306.945 265.22 306.843C264.978 306.741 264.758 306.592 264.574 306.405C264.39 306.218 264.244 305.996 264.146 305.753C264.047 305.509 263.998 305.249 264 304.986V279.014C264 277.902 264.91 277 265.984 277H302.016C303.112 277 304 277.898 304 279.014V304.986C304 306.098 303.09 307 302.016 307H286Z" fill="white"/>
</g>
<defs>
<filter id="filter0_d_1553_6" x="185" y="225" width="194" height="160" filterUnits="userSpaceOnUse" color-interpolation-filters="sRGB">
<feFlood flood-opacity="0" result="BackgroundImageFix"/>
<feColorMatrix in="SourceAlpha" type="matrix" values="0 0 0 0 0 0 0 0 0 0 0 0 0 0 0 0 0 0 127 0" result="hardAlpha"/>
<feOffset dy="10"/>
<feGaussianBlur stdDeviation="14.5"/>
<feColorMatrix type="matrix" values="0 0 0 0 0.25098 0 0 0 0 0.505647 0 0 0 0 1 0 0 0 0.24 0"/>
<feBlend mode="normal" in2="BackgroundImageFix" result="effect1_dropShadow_1553_6"/>
<feBlend mode="normal" in="SourceGraphic" in2="effect1_dropShadow_1553_6" result="shape"/>
</filter>
<clipPath id="clip0_1553_6">
<rect width="48" height="48" fill="white" transform="translate(260 271)"/>
</clipPath>
</defs>
</svg>
